<svg height="512" viewBox="0 0 64 64" width="512" xmlns="http://www.w3.org/2000/svg"><path d="m41 52a8.993 8.993 0 1 1 -9-9 8.874 8.874 0 0 1 4.01.95h.24a3.2 3.2 0 0 0 1.3 3.98l2.82.78a8.8 8.8 0 0 1 .63 3.29z" fill="#78b9eb"/><path d="m57 35h4v16h-4z" fill="#78b9eb"/><path d="m3 3h4v16h-4z" fill="#78b9eb"/><path d="m56 13v2h-28.58a3.052 3.052 0 0 0 .58-1.81 3.161 3.161 0 0 0 -.88-2.19h26.88a2.006 2.006 0 0 1 2 2z" fill="#78b9eb"/><path d="m22 19v10a2.006 2.006 0 0 0 2 2h30a2.006 2.006 0 0 0 2-2v-10zm28 8a1.991 1.991 0 0 1 -1.5-.69 2 2 0 1 1 0-2.62 2 2 0 1 1 1.5 3.31z" fill="#78b9eb"/><g fill="#006df0"><path d="m54 32a3 3 0 0 0 3-3v-16a3 3 0 0 0 -3-3h-15.738a3.105 3.105 0 0 0 -.383-.377.894.894 0 0 0 -.125-.086l-9.25-5.4a.973.973 0 0 0 -.325-.12l-11-2a.986.986 0 0 0 -.375 0l-8.804 1.763v-.78a1 1 0 0 0 -1-1h-4a1 1 0 0 0 -1 1v16a1 1 0 0 0 1 1h4a1 1 0 0 0 1-1v-2.382l4.553 2.282a1 1 0 0 0 .447.1h6a1 1 0 0 0 .267-.036l1.733-.482v10.518a3 3 0 0 0 3 3zm-31-14.07 3.719-1.037a.952.952 0 0 0 .245-.106 4.057 4.057 0 0 0 .945-.787h27.091v2h-32zm32-4.93v1h-26.088a4.177 4.177 0 0 0 .088-.81 4.1 4.1 0 0 0 -.2-1.19h25.2a1 1 0 0 1 1 1zm-49 5h-2v-14h2zm12.864-1h-5.628l-5.236-2.618v-8.562l9.009-1.8 10.638 1.932 6.934 4.048h-7.1a4.109 4.109 0 0 0 -2.671-1h-4.81v2h4.81a2.207 2.207 0 0 1 2.19 2.19 2.1 2.1 0 0 1 -.419 1.265 1.973 1.973 0 0 1 -.542.551zm4.136 12v-9h32v9a1 1 0 0 1 -1 1h-30a1 1 0 0 1 -1-1z"/><path d="m47 28a2.976 2.976 0 0 0 1.5-.408 3 3 0 1 0 0-5.184 3 3 0 1 0 -1.5 5.592zm0-4a.988.988 0 0 1 .747.348 1.035 1.035 0 0 0 1.506 0 .988.988 0 0 1 .747-.348 1 1 0 0 1 0 2 .988.988 0 0 1 -.747-.348 1 1 0 0 0 -1.506 0 .988.988 0 0 1 -.747.348 1 1 0 0 1 0-2z"/><path d="m25 22h4v2h-4z"/><path d="m25 26h7v2h-7z"/><path d="m34 50h2a3 3 0 0 0 -3-3v-1h-2v1a3 3 0 0 0 0 6v2a1 1 0 0 1 -1-1h-2a3 3 0 0 0 3 3v1h2v-1a3 3 0 0 0 0-6v-2a1 1 0 0 1 1 1zm0 4a1 1 0 0 1 -1 1v-2a1 1 0 0 1 1 1zm-3-3a1 1 0 0 1 0-2z"/><path d="m61 34h-4a1 1 0 0 0 -1 1v.78l-8.8-1.76a.986.986 0 0 0 -.375 0l-11 2a.973.973 0 0 0 -.325.12l-9.25 5.4a.894.894 0 0 0 -.125.086 2.993 2.993 0 0 0 -1.125 2.334v.925a9.99 9.99 0 1 0 16.828 5.272l2.9.807a1.049 1.049 0 0 0 .272.036h6a1 1 0 0 0 .447-.1l4.553-2.282v2.382a1 1 0 0 0 1 1h4a1 1 0 0 0 1-1v-16a1 1 0 0 0 -1-1zm-21 18a8.014 8.014 0 1 1 -4.944-7.363 3.981 3.981 0 0 0 1.979 4.15 1.043 1.043 0 0 0 .247.107l2.318.644a7.8 7.8 0 0 1 .4 2.462zm10.764-3h-5.627l-7.176-1.994a2.192 2.192 0 0 1 1.231-4.006h4.808v-2h-4.808a4.183 4.183 0 0 0 -3.405 1.765 9.812 9.812 0 0 0 -3.787-.765 9.967 9.967 0 0 0 -4.119.9l8.472-4.947 10.638-1.934 9.009 1.801v8.562zm9.236 1h-2v-14h2z"/></g></svg>